inDegrees=yes
name=ik_S40_A02_T01
DataType=double
version=3
OpenSimVersion=4.3-2021-08-27-4bc7ad9
endheader
time	pelvis_tilt	pelvis_list	pelvis_rotation	pelvis_tx	pelvis_ty	pelvis_tz	hip_flexion_r	hip_adduction_r	hip_rotation_r	knee_angle_r	knee_angle_r_beta	ankle_angle_r	subtalar_angle_r	mtp_angle_r	hip_flexion_l	hip_adduction_l	hip_rotation_l	knee_angle_l	knee_angle_l_beta	ankle_angle_l	subtalar_angle_l	mtp_angle_l	lumbar_extension	lumbar_bending	lumbar_rotation	arm_flex_r	arm_add_r	arm_rot_r	elbow_flex_r	pro_sup_r	wrist_flex_r	wrist_dev_r	arm_flex_l	arm_add_l	arm_rot_l	elbow_flex_l	pro_sup_l	wrist_flex_l	wrist_dev_l
9.31999999999989	1.347025691456601	14.76696966888099	-87.56275298427181	0	0.9399999999999999	0	12.326399345421	-0.9206250583651955	-10.71223867363608	3.796157436627506	0.06625544619321797	0	0	0	32.84532326254406	4.425543425865721	-2.315310763758766	-9.386387480556339	-0.1638233664036833	0	0	0	0	0	0	30.07027632184727	-30.07027632184726	4.26090541766737	74.33881183457979	85.73909482168968	0	0	30.07027632184727	-30.07027632184726	4.26090541766737	74.33881183457979	85.7390948215514	0	0
9.33999999999989	1.577749371287076	15.13011907874755	-87.25254886295504	0	0.9399999999999999	0	12.73757847159375	-0.9490849274016644	-12.00642825183653	1.490375509356033	0.02601195972935033	0	0	0	33.09884837551161	4.326317527300408	-1.928962874835654	-6.344432252999476	-0.1107312319845627	0	0	0	0	0	0	30.18377274981249	-30.18377274981249	4.270751803324994	74.48188221985522	85.72924843653495	0	0	30.18377274981249	-30.18377274981249	4.270751803324994	74.48188221985522	85.72924843639854	0	0
9.359999999999889	1.820661063651839	15.63516669733043	-87.21685824477846	0	0.9399999999999999	0	13.41047297088131	-1.214675718839864	-12.38338539982582	0.4407145442499382	0.007691919858587665	0	0	0	33.44488640685672	4.350776296290112	-1.220830405319596	-5.092126808847501	-0.08887437874346082	0	0	0	0	0	0	30.18719970001369	-30.18719970001369	4.271087678061591	74.48678607794325	85.72891256181585	0	0	30.18719970001369	-30.18719970001369	4.271087678061591	74.48678607794325	85.72891256167949	0	0
9.379999999999889	2.104676688346432	15.89578303392459	-87.37933197959488	0	0.9399999999999999	0	13.82379920280684	-1.571390384256179	-12.59238192815431	0.4551913552049503	0.00794458787494141	0	0	0	33.33452340890011	4.149045041522138	-0.07163794231979076	-1.155927243617703	-0.02017473631463153	0	0	0	0	0	0	30.34172518883626	-30.34172518883626	4.284375444385993	74.67979138007048	85.71562479616945	0	0	30.34172518883626	-30.34172518883626	4.284375444385993	74.67979138007048	85.71562479603551	0	0
9.399999999999888	2.252134562735205	15.92978014138571	-87.50401900859572	0	0.9399999999999999	0	14.04664852243881	-1.680245294302512	-13.02542796147374	-0.646364787282808	-0.01128119370703777	0	0	0	32.69375189622791	3.656659171467183	0.8312152649425069	-0.6365309374716287	-0.01110956064968607	0	0	0	0	0	0	30.34702516146892	-30.34702516146892	4.284890613770126	74.68730834988334	85.71510962681211	0	0	30.34702516146892	-30.34702516146892	4.284890613770126	74.68730834988334	85.71510962667824	0	0
9.419999999999888	2.502560917594029	15.95982819289201	-87.77468612713494	0	0.9399999999999999	0	14.25647348846065	-1.746096473188594	-13.59077950442603	-2.085115496584372	-0.03639213069975387	0	0	0	31.91857961146142	3.181543967371173	1.333334295531717	1.39637532071648	0.02437134694009436	0	0	0	0	0	0	30.35231148175946	-30.35231148175945	4.285403854681677	74.69479675002147	85.71459638592719	0	0	30.35231148175946	-30.35231148175945	4.285403854681677	74.69479675002147	85.71459638579344	0	0
9.439999999999888	2.693420118319514	15.98874323960399	-88.11290521650578	0	0.9399999999999999	0	14.27040783879314	-1.780972948103107	-13.38759515704102	-2.804826012987035	-0.048953448872209	0	0	0	31.01185728252653	2.780147046663858	2.188356571842929	3.168395772440144	0.05529893823534952	0	0	0	0	0	0	30.35679557581797	-30.35679557581796	4.285838877184986	74.70114366682256	85.71416136344648	0	0	30.35679557581797	-30.35679557581796	4.285838877184986	74.70114366682256	85.71416136331278	0	0
9.459999999999887	3.067137797927021	16.38740489835011	-89.11504102251612	0	0.9399999999999999	0	15.02064164527292	-1.896587670614242	-12.64681019883266	-2.854197388894549	-0.04981514193803492	0	0	0	30.39484856657088	2.282481570726419	2.496438787551235	4.791294873232615	0.08362387097183345	0	0	0	0	0	0	30.36182381748178	-30.36182381748177	4.286326819977487	74.70826267921532	85.7136734206793	0	0	30.36182381748178	-30.36182381748177	4.286326819977487	74.70826267921532	85.71367342054572	0	0
9.479999999999887	3.114581062593029	16.45056175711077	-89.27465503291891	0	0.9399999999999999	0	15.12113427571813	-1.838087619281667	-12.46163394951863	-3.42422200565205	-0.05976394831787215	0	0	0	29.15627216245444	1.969567094321147	3.549313359937095	5.931927938587148	0.1035316735193857	0	0	0	0	0	0	30.36578002389124	-30.36578002389124	4.286710304585234	74.71385737706134	85.71328993609148	0	0	30.36578002389124	-30.36578002389124	4.286710304585234	74.71385737706134	85.71328993595795	0	0
9.499999999999886	3.208868934999959	16.62319534088762	-89.55140823285149	0	0.9399999999999999	0	15.93241916602844	-1.80227444531853	-13.29838587434452	-3.199444482309946	-0.05584084045107403	0	0	0	27.78403030686914	1.649000871608059	3.855088424650271	6.916844197157641	0.1207217050878646	0	0	0	0	0	0	30.370227049881	-30.370227049881	4.287141547232095	74.7201488492905	85.71285869346704	0	0	30.370227049881	-30.370227049881	4.287141547232095	74.7201488492905	85.71285869333356	0	0
9.519999999999886	3.281796317110722	16.81772949733524	-89.8107228344695	0	0.9399999999999999	0	17.1536509264974	-1.828216142628512	-14.03840726794652	-2.661011115183256	-0.04644340539211389	0	0	0	26.42079007038693	1.243261100223478	3.133307766699776	7.462267699492966	0.130241141021375	0	0	0	0	0	0	30.37555370901245	-30.37555370901245	4.287656186284613	74.72765591296827	85.71234405444117	0	0	30.37555370901245	-30.37555370901245	4.287656186284613	74.72765591296827	85.71234405430779	0	0
9.539999999999885	3.33839173999637	16.99386290797159	-90.02029042723706	0	0.9399999999999999	0	17.84166138615803	-1.822039070706394	-14.33801291131694	-2.597656722964963	-0.0453376626523048	0	0	0	25.02523910514473	0.8807730495924002	1.982383135322375	7.841628615638111	0.1368622380614899	0	0	0	0	0	0	30.37833811414822	-30.37833811414822	4.287924617161117	74.73157120046602	85.7120756235786	0	0	30.37833811414822	-30.37833811414822	4.287924617161117	74.73157120046602	85.71207562344526	0	0
9.559999999999885	3.390464289048854	17.12703273735501	-90.15683525495676	0	0.9399999999999999	0	18.50956289209464	-1.855148506153134	-14.66316895033375	-2.91729663389709	-0.05091643151885183	0	0	0	23.52850460431171	0.7627134442237025	0.8395715424082139	8.283417129813333	0.1445729022313412	0	0	0	0	0	0	30.38145212185332	-30.38145212185331	4.2882248514236	74.73595034740504	85.71177538933166	0	0	30.38145212185332	-30.38145212185331	4.2882248514236	74.73595034740504	85.71177538919846	0	0
9.579999999999885	3.451312988881454	17.23813496570676	-90.27521960266118	0	0.9399999999999999	0	19.09112176131191	-1.904634516369002	-14.94996690225931	-3.069710308417865	-0.05357655196430235	0	0	0	22.18803206393208	0.7088471435353628	0.1927431912067807	8.750132769608381	0.1527186268163167	0	0	0	0	0	0	30.38559343189013	-30.38559343189013	4.288624713375488	74.74178290812176	85.71137552740055	0	0	30.38559343189013	-30.38559343189013	4.288624713375488	74.74178290812176	85.71137552726741	0	0
